<svg id="_x31_" enable-background="new 0 0 24 24" height="512" viewBox="0 0 24 24" width="512" xmlns="http://www.w3.org/2000/svg"><g><g><path d="m4.129 20c-.101 0-.202-.031-.288-.091-.156-.11-.236-.3-.206-.489l1.081-6.625-4.574-4.689c-.131-.134-.176-.33-.116-.508s.213-.307.398-.335l6.301-.963 2.822-6.013c.165-.352.74-.352.905 0l2.823 6.013 6.301.963c.185.028.339.158.398.335s.015.374-.116.508l-2.188 2.243c-.193.199-.509.202-.707.009s-.202-.509-.009-.707l1.508-1.546-5.602-.856c-.165-.025-.306-.131-.377-.282l-2.483-5.29-2.483 5.29c-.071.151-.212.257-.377.282l-5.602.855 4.07 4.172c.111.114.161.273.136.43l-.956 5.858 4.97-2.748c.242-.135.545-.045.679.196.134.242.046.546-.196.679l-5.871 3.246c-.075.042-.158.063-.241.063z"/></g></g><g><g><path d="m17.5 24c-3.584 0-6.5-2.916-6.5-6.5s2.916-6.5 6.5-6.5 6.5 2.916 6.5 6.5-2.916 6.5-6.5 6.5zm0-12c-3.033 0-5.5 2.467-5.5 5.5s2.467 5.5 5.5 5.5 5.5-2.467 5.5-5.5-2.467-5.5-5.5-5.5z"/></g></g><g><g><path d="m17.5 21c-.276 0-.5-.224-.5-.5v-6c0-.276.224-.5.5-.5s.5.224.5.5v6c0 .276-.224.5-.5.5z"/></g></g><g><g><path d="m20.5 18h-6c-.276 0-.5-.224-.5-.5s.224-.5.5-.5h6c.276 0 .5.224.5.5s-.224.5-.5.5z"/></g></g></svg>