<svg height="486pt" viewBox="0 -9 486.25161 486" width="486pt" xmlns="http://www.w3.org/2000/svg"><path d="m42 186.589844c0-91.351563 73.535156-166.519532 166.777344-173.863282-4.949219-.390624-9.949219-.601562-15-.601562-100.230469 0-181.777344 78.265625-181.777344 174.464844 0 96.199218 81.546875 174.460937 181.777344 174.460937 5.050781 0 10.050781-.207031 15-.601562-93.246094-7.339844-166.777344-82.507813-166.777344-173.859375zm0 0" fill="#d4e1f4"/><path d="m474.832031 404.054688-81.632812-78.453126c-2.324219-2.230468-5.992188-2.230468-8.316407 0l-18.898437 18.164063-30.917969-29.710937c32.53125-33.367188 52.488282-78.214844 52.488282-127.464844 0-102.816406-86.929688-186.464844-193.777344-186.464844s-193.777344 83.648438-193.777344 186.464844 86.933594 186.460937 193.777344 186.460937c48.972656.167969 96.253906-17.890625 132.644531-50.664062l30.902344 29.699219-18.773438 18.039062c-1.175781 1.132812-1.839843 2.695312-1.839843 4.328125s.664062 3.195313 1.839843 4.324219l81.671875 78.488281c15.320313 14.472656 39.273438 14.460937 54.578125-.027344.503907-.476562.996094-.96875 1.472657-1.472656 13.847656-14.691406 13.203124-37.8125-1.441407-51.710937zm-281.054687-43c-100.230469 0-181.777344-78.261719-181.777344-174.460938s81.546875-174.46875 181.777344-174.46875c100.230468 0 181.777344 78.265625 181.777344 174.460938 0 96.199218-81.546876 174.464843-181.777344 174.464843zm273.773437 86.472656c-.324219.339844-.65625.671875-1.027343 1.019531-10.660157 10.085937-27.339844 10.101563-38.019532.035156l-77.136718-74.125 37.671874-36.207031 77.515626 74.5c9.859374 9.335938 10.304687 24.890625.996093 34.777344zm0 0" fill="#0635c9"/><g fill="#1ae5be"><path d="m83.777344 291.125h154.269531c8.921875-.175781 16.066406-7.445312 16.085937-16.367188v-24.855468l56.800782 31.191406c.875.484375 1.863281.738281 2.863281.738281 1.128906.003907 2.238281-.285156 3.226563-.835937 1.863281-1.058594 3.042968-3.015625 3.109374-5.164063v-109.648437c-.070312-2.148438-1.253906-4.105469-3.121093-5.164063-1.84375-1.082031-4.113281-1.121093-5.988281-.101562l-56.890626 31.207031v-24.867188c-.039062-8.875-7.210937-16.066406-16.085937-16.132812h-154.269531c-4.21875.050781-8.242188 1.78125-11.179688 4.808594-2.9375 3.03125-4.546875 7.105468-4.464844 11.324218v107.5c0 8.820313 6.820313 16.367188 15.644532 16.367188zm224.355468-114.804688v89.378907l-54-29.484375v-30.40625zm-228-9.0625c0-2.203124 1.4375-4.132812 3.644532-4.132812h154.269531c2.25.0625 4.050781 1.882812 4.085937 4.132812v107.5c-.015624 2.300782-1.792968 4.199219-4.085937 4.367188h-154.269531c-2.207032 0-3.644532-2.164062-3.644532-4.367188zm0 0"/><path d="m162.734375 114.507812c-.003906 17.722657 14.359375 32.089844 32.082031 32.09375 17.722656.003907 32.089844-14.359374 32.09375-32.082031 0-17.722656-14.363281-32.089843-32.085937-32.09375-17.710938.019531-32.066407 14.371094-32.089844 32.082031zm52.171875 0c.003906 11.097657-8.988281 20.09375-20.082031 20.09375-11.097657 0-20.09375-8.992187-20.09375-20.089843.003906-11.09375 9-20.089844 20.09375-20.085938 11.085937.011719 20.074219 8.996094 20.085937 20.082031zm0 0"/><path d="m127 146.59375c17.71875 0 32.085938-14.363281 32.085938-32.085938 0-17.722656-14.367188-32.085937-32.085938-32.085937-17.722656 0-32.089844 14.363281-32.089844 32.085937.023438 17.714844 14.375 32.066407 32.089844 32.085938zm0-52.171875c11.09375 0 20.085938 8.992187 20.085938 20.085937s-8.992188 20.085938-20.085938 20.085938-20.089844-8.992188-20.089844-20.085938c.015625-11.085937 9.003906-20.070312 20.089844-20.082031zm0 0"/></g></svg>